<svg width="500" height="500" viewBox="0 0 500 500" fill="none" xmlns="http://www.w3.org/2000/svg">
<rect x="5" y="5" width="490" height="490" rx="75" fill="#5577FF" fill-opacity="0.79"/>
<rect x="5" y="5" width="490" height="490" rx="75" stroke="#7B68EE" stroke-width="10"/>
<path d="M193 72.5C193 51.7893 209.789 35 230.5 35H415.5C436.211 35 453 51.7893 453 72.5V72.5C453 93.2107 436.211 110 415.5 110H230.5C209.789 110 193 93.2107 193 72.5V72.5Z" fill="#D9D9D9"/>
<rect x="57" y="150" width="260" height="75" rx="37.5" fill="#D9D9D9"/>
<rect x="193" y="265" width="260" height="75" rx="37.5" fill="#D9D9D9"/>
<path d="M58 417.5C58 396.789 74.7893 380 95.5 380H280.5C301.211 380 318 396.789 318 417.5V417.5C318 438.211 301.211 455 280.5 455H95.5C74.7893 455 58 438.211 58 417.5V417.5Z" fill="#D9D9D9"/>
<path d="M58 72.5C58 51.7893 74.7893 35 95.5 35H115.5C136.211 35 153 51.7893 153 72.5V72.5C153 93.2107 136.211 110 115.5 110H95.5C74.7893 110 58 93.2107 58 72.5V72.5Z" fill="#02D297"/>
<path d="M58 302.5C58 281.789 74.7893 265 95.5 265H115.5C136.211 265 153 281.789 153 302.5V302.5C153 323.211 136.211 340 115.5 340H95.5C74.7893 340 58 323.211 58 302.5V302.5Z" fill="#02D297"/>
<path d="M357 187.5C357 166.789 373.789 150 394.5 150H414.5C435.211 150 452 166.789 452 187.5V187.5C452 208.211 435.211 225 414.5 225H394.5C373.789 225 357 208.211 357 187.5V187.5Z" fill="#FD71AF"/>
<path d="M358 417.5C358 396.789 374.789 380 395.5 380H415.5C436.211 380 453 396.789 453 417.5V417.5C453 438.211 436.211 455 415.5 455H395.5C374.789 455 358 438.211 358 417.5V417.5Z" fill="#FD71AF"/>
</svg>
